<svg id="visual" viewBox="0 0 900 450" width="900" height="450" xmlns="http://www.w3.org/2000/svg" xmlns:xlink="http://www.w3.org/1999/xlink" version="1.1"><g stroke-width="2" stroke-linejoin="bevel"><path d="M468 202.9L498.3 234.1L493.3 196.9Z" fill="#ffffff" stroke="#908bb1"></path><path d="M468 202.9L467 255.1L498.3 234.1Z" fill="#ffffff" stroke="#908bb1"></path><path d="M452 121.6L401.7 184.9L468 202.9Z" fill="#ffffff" stroke="#908bb1"></path><path d="M468 202.9L401.7 184.9L467 255.1Z" fill="#ffffff" stroke="#908bb1"></path><path d="M596.6 276.1L571.6 190.9L498.3 234.1Z" fill="#ffffff" stroke="#908bb1"></path><path d="M498.3 234.1L571.6 190.9L493.3 196.9Z" fill="#ffffff" stroke="#908bb1"></path><path d="M493.3 196.9L452 121.6L468 202.9Z" fill="#ffffff" stroke="#908bb1"></path><path d="M467 255.1L523.3 307.4L498.3 234.1Z" fill="#ffffff" stroke="#908bb1"></path><path d="M512.3 106.6L452 121.6L493.3 196.9Z" fill="#ffffff" stroke="#908bb1"></path><path d="M364.7 277.1L467 325.4L467 255.1Z" fill="#ffffff" stroke="#908bb1"></path><path d="M467 255.1L467 325.4L523.3 307.4Z" fill="#ffffff" stroke="#908bb1"></path><path d="M556.6 114.6L512.3 106.6L493.3 196.9Z" fill="#ffffff" stroke="#908bb1"></path><path d="M499.3 384.7L555.6 308.4L523.3 307.4Z" fill="#ffffff" stroke="#908bb1"></path><path d="M523.3 307.4L555.6 308.4L498.3 234.1Z" fill="#ffffff" stroke="#908bb1"></path><path d="M571.6 190.9L556.6 114.6L493.3 196.9Z" fill="#ffffff" stroke="#908bb1"></path><path d="M555.6 308.4L596.6 276.1L498.3 234.1Z" fill="#ffffff" stroke="#908bb1"></path><path d="M571.6 190.9L644.9 127.6L556.6 114.6Z" fill="#ffffff" stroke="#908bb1"></path><path d="M401.7 184.9L364.7 277.1L467 255.1Z" fill="#ffffff" stroke="#908bb1"></path><path d="M512.3 106.6L439 82.3L452 121.6Z" fill="#ffffff" stroke="#908bb1"></path><path d="M452 121.6L371.7 124.6L401.7 184.9Z" fill="#ffffff" stroke="#908bb1"></path><path d="M401.7 184.9L331.4 179.9L364.7 277.1Z" fill="#ffffff" stroke="#908bb1"></path><path d="M505.3 65.3L439 82.3L512.3 106.6Z" fill="#ffffff" stroke="#908bb1"></path><path d="M394.7 84.3L371.7 124.6L452 121.6Z" fill="#ffffff" stroke="#908bb1"></path><path d="M362.7 319.4L458 363.7L467 325.4Z" fill="#ffffff" stroke="#908bb1"></path><path d="M467 325.4L499.3 384.7L523.3 307.4Z" fill="#ffffff" stroke="#908bb1"></path><path d="M556.6 114.6L505.3 65.3L512.3 106.6Z" fill="#ffffff" stroke="#908bb1"></path><path d="M371.7 124.6L331.4 179.9L401.7 184.9Z" fill="#ffffff" stroke="#908bb1"></path><path d="M596.6 276.1L641.9 234.1L571.6 190.9Z" fill="#ffffff" stroke="#908bb1"></path><path d="M311.4 301.4L362.7 319.4L364.7 277.1Z" fill="#ffffff" stroke="#908bb1"></path><path d="M364.7 277.1L362.7 319.4L467 325.4Z" fill="#ffffff" stroke="#908bb1"></path><path d="M439 82.3L394.7 84.3L452 121.6Z" fill="#ffffff" stroke="#908bb1"></path><path d="M371.7 124.6L342.4 129.6L331.4 179.9Z" fill="#ffffff" stroke="#908bb1"></path><path d="M403.7 0L394.7 84.3L439 82.3Z" fill="#ffffff" stroke="#908bb1"></path><path d="M394.7 84.3L342.4 129.6L371.7 124.6Z" fill="#ffffff" stroke="#908bb1"></path><path d="M464 450L499.3 384.7L458 363.7Z" fill="#ffffff" stroke="#908bb1"></path><path d="M458 363.7L499.3 384.7L467 325.4Z" fill="#ffffff" stroke="#908bb1"></path><path d="M555.6 308.4L660.9 320.4L596.6 276.1Z" fill="#ffffff" stroke="#908bb1"></path><path d="M596.6 276.1L660.9 320.4L641.9 234.1Z" fill="#ffffff" stroke="#908bb1"></path><path d="M641.9 234.1L657.9 187.9L571.6 190.9Z" fill="#ffffff" stroke="#908bb1"></path><path d="M556.6 114.6L563.6 43.3L505.3 65.3Z" fill="#ffffff" stroke="#908bb1"></path><path d="M657.9 187.9L644.9 127.6L571.6 190.9Z" fill="#ffffff" stroke="#908bb1"></path><path d="M629.9 61.3L563.6 43.3L556.6 114.6Z" fill="#ffffff" stroke="#908bb1"></path><path d="M505.3 65.3L432 0L439 82.3Z" fill="#ffffff" stroke="#908bb1"></path><path d="M273.1 170.9L298.4 263.1L331.4 179.9Z" fill="#ffffff" stroke="#908bb1"></path><path d="M331.4 179.9L298.4 263.1L364.7 277.1Z" fill="#ffffff" stroke="#908bb1"></path><path d="M298.4 263.1L311.4 301.4L364.7 277.1Z" fill="#ffffff" stroke="#908bb1"></path><path d="M362.7 319.4L390.7 386.7L458 363.7Z" fill="#ffffff" stroke="#908bb1"></path><path d="M302.4 401.7L390.7 386.7L362.7 319.4Z" fill="#ffffff" stroke="#908bb1"></path><path d="M641.9 234.1L686.1 192.9L657.9 187.9Z" fill="#ffffff" stroke="#908bb1"></path><path d="M657.9 187.9L696.1 130.6L644.9 127.6Z" fill="#ffffff" stroke="#908bb1"></path><path d="M699.1 254.1L686.1 192.9L641.9 234.1Z" fill="#ffffff" stroke="#908bb1"></path><path d="M587.6 397.7L660.9 320.4L555.6 308.4Z" fill="#ffffff" stroke="#908bb1"></path><path d="M509.3 450L587.6 397.7L499.3 384.7Z" fill="#ffffff" stroke="#908bb1"></path><path d="M499.3 384.7L587.6 397.7L555.6 308.4Z" fill="#ffffff" stroke="#908bb1"></path><path d="M688.1 51.3L629.9 61.3L644.9 127.6Z" fill="#ffffff" stroke="#908bb1"></path><path d="M644.9 127.6L629.9 61.3L556.6 114.6Z" fill="#ffffff" stroke="#908bb1"></path><path d="M239.1 135.6L273.1 170.9L342.4 129.6Z" fill="#ffffff" stroke="#908bb1"></path><path d="M342.4 129.6L273.1 170.9L331.4 179.9Z" fill="#ffffff" stroke="#908bb1"></path><path d="M660.9 320.4L699.1 254.1L641.9 234.1Z" fill="#ffffff" stroke="#908bb1"></path><path d="M573.6 0L524.3 0L563.6 43.3Z" fill="#ffffff" stroke="#908bb1"></path><path d="M563.6 43.3L524.3 0L505.3 65.3Z" fill="#ffffff" stroke="#908bb1"></path><path d="M524.3 0L432 0L505.3 65.3Z" fill="#ffffff" stroke="#908bb1"></path><path d="M394.7 84.3L327.4 43.3L342.4 129.6Z" fill="#ffffff" stroke="#908bb1"></path><path d="M686.1 192.9L696.1 130.6L657.9 187.9Z" fill="#ffffff" stroke="#908bb1"></path><path d="M780.4 209.9L696.1 130.6L686.1 192.9Z" fill="#ffffff" stroke="#908bb1"></path><path d="M432 0L403.7 0L439 82.3Z" fill="#ffffff" stroke="#908bb1"></path><path d="M390.7 386.7L464 450L458 363.7Z" fill="#ffffff" stroke="#908bb1"></path><path d="M464 450L509.3 450L499.3 384.7Z" fill="#ffffff" stroke="#908bb1"></path><path d="M403.7 0L327.4 43.3L394.7 84.3Z" fill="#ffffff" stroke="#908bb1"></path><path d="M629.9 61.3L573.6 0L563.6 43.3Z" fill="#ffffff" stroke="#908bb1"></path><path d="M635.9 0L573.6 0L629.9 61.3Z" fill="#ffffff" stroke="#908bb1"></path><path d="M298.4 263.1L234.1 326.4L311.4 301.4Z" fill="#ffffff" stroke="#908bb1"></path><path d="M302.4 401.7L386.7 450L390.7 386.7Z" fill="#ffffff" stroke="#908bb1"></path><path d="M273.1 170.9L235.1 240.1L298.4 263.1Z" fill="#ffffff" stroke="#908bb1"></path><path d="M182.9 178.9L235.1 240.1L273.1 170.9Z" fill="#ffffff" stroke="#908bb1"></path><path d="M587.6 397.7L663.9 393.7L660.9 320.4Z" fill="#ffffff" stroke="#908bb1"></path><path d="M660.9 320.4L718.1 331.4L699.1 254.1Z" fill="#ffffff" stroke="#908bb1"></path><path d="M626.9 450L663.9 393.7L587.6 397.7Z" fill="#ffffff" stroke="#908bb1"></path><path d="M302.4 401.7L362.7 319.4L311.4 301.4Z" fill="#ffffff" stroke="#908bb1"></path><path d="M390.7 386.7L386.7 450L464 450Z" fill="#ffffff" stroke="#908bb1"></path><path d="M327.4 43.3L239.1 135.6L342.4 129.6Z" fill="#ffffff" stroke="#908bb1"></path><path d="M509.3 450L598.6 450L587.6 397.7Z" fill="#ffffff" stroke="#908bb1"></path><path d="M255.1 395.7L302.4 401.7L311.4 301.4Z" fill="#ffffff" stroke="#908bb1"></path><path d="M663.9 393.7L718.1 331.4L660.9 320.4Z" fill="#ffffff" stroke="#908bb1"></path><path d="M699.1 254.1L780.4 209.9L686.1 192.9Z" fill="#ffffff" stroke="#908bb1"></path><path d="M763.4 65.3L688.1 51.3L696.1 130.6Z" fill="#ffffff" stroke="#908bb1"></path><path d="M696.1 130.6L688.1 51.3L644.9 127.6Z" fill="#ffffff" stroke="#908bb1"></path><path d="M688.1 51.3L635.9 0L629.9 61.3Z" fill="#ffffff" stroke="#908bb1"></path><path d="M598.6 450L626.9 450L587.6 397.7Z" fill="#ffffff" stroke="#908bb1"></path><path d="M663.9 393.7L728.1 362.7L718.1 331.4Z" fill="#ffffff" stroke="#908bb1"></path><path d="M235.1 240.1L234.1 326.4L298.4 263.1Z" fill="#ffffff" stroke="#908bb1"></path><path d="M403.7 0L302.4 0L327.4 43.3Z" fill="#ffffff" stroke="#908bb1"></path><path d="M327.4 43.3L239.1 44.3L239.1 135.6Z" fill="#ffffff" stroke="#908bb1"></path><path d="M182.9 178.9L202.9 249.1L235.1 240.1Z" fill="#ffffff" stroke="#908bb1"></path><path d="M235.1 240.1L202.9 249.1L234.1 326.4Z" fill="#ffffff" stroke="#908bb1"></path><path d="M773.4 371.7L728.1 362.7L728.1 450Z" fill="#ffffff" stroke="#908bb1"></path><path d="M718.1 331.4L753.4 322.4L699.1 254.1Z" fill="#ffffff" stroke="#908bb1"></path><path d="M728.1 362.7L753.4 322.4L718.1 331.4Z" fill="#ffffff" stroke="#908bb1"></path><path d="M234.1 326.4L255.1 395.7L311.4 301.4Z" fill="#ffffff" stroke="#908bb1"></path><path d="M302.4 401.7L307.4 450L386.7 450Z" fill="#ffffff" stroke="#908bb1"></path><path d="M213.9 336.4L255.1 395.7L234.1 326.4Z" fill="#ffffff" stroke="#908bb1"></path><path d="M258.1 450L307.4 450L302.4 401.7Z" fill="#ffffff" stroke="#908bb1"></path><path d="M783.4 235.1L780.4 209.9L699.1 254.1Z" fill="#ffffff" stroke="#908bb1"></path><path d="M202.9 249.1L213.9 336.4L234.1 326.4Z" fill="#ffffff" stroke="#908bb1"></path><path d="M195.9 50.3L197.9 141.6L239.1 135.6Z" fill="#ffffff" stroke="#908bb1"></path><path d="M239.1 135.6L182.9 178.9L273.1 170.9Z" fill="#ffffff" stroke="#908bb1"></path><path d="M753.4 322.4L783.4 235.1L699.1 254.1Z" fill="#ffffff" stroke="#908bb1"></path><path d="M274.1 0L239.1 44.3L327.4 43.3Z" fill="#ffffff" stroke="#908bb1"></path><path d="M302.4 0L274.1 0L327.4 43.3Z" fill="#ffffff" stroke="#908bb1"></path><path d="M197.9 141.6L182.9 178.9L239.1 135.6Z" fill="#ffffff" stroke="#908bb1"></path><path d="M117.6 375.7L207.9 383.7L213.9 336.4Z" fill="#ffffff" stroke="#908bb1"></path><path d="M780.4 209.9L780.4 123.6L696.1 130.6Z" fill="#ffffff" stroke="#908bb1"></path><path d="M688.1 51.3L707.1 0L635.9 0Z" fill="#ffffff" stroke="#908bb1"></path><path d="M816.7 173.9L780.4 123.6L780.4 209.9Z" fill="#ffffff" stroke="#908bb1"></path><path d="M763.4 65.3L707.1 0L688.1 51.3Z" fill="#ffffff" stroke="#908bb1"></path><path d="M780.4 123.6L763.4 65.3L696.1 130.6Z" fill="#ffffff" stroke="#908bb1"></path><path d="M213.9 336.4L207.9 383.7L255.1 395.7Z" fill="#ffffff" stroke="#908bb1"></path><path d="M255.1 395.7L258.1 450L302.4 401.7Z" fill="#ffffff" stroke="#908bb1"></path><path d="M118.6 309.4L213.9 336.4L202.9 249.1Z" fill="#ffffff" stroke="#908bb1"></path><path d="M203.9 450L258.1 450L255.1 395.7Z" fill="#ffffff" stroke="#908bb1"></path><path d="M728.1 362.7L773.4 371.7L753.4 322.4Z" fill="#ffffff" stroke="#908bb1"></path><path d="M852.7 334.4L847.7 236.1L783.4 235.1Z" fill="#ffffff" stroke="#908bb1"></path><path d="M728.1 450L728.1 362.7L663.9 393.7Z" fill="#ffffff" stroke="#908bb1"></path><path d="M193.9 0L195.9 50.3L239.1 44.3Z" fill="#ffffff" stroke="#908bb1"></path><path d="M239.1 44.3L195.9 50.3L239.1 135.6Z" fill="#ffffff" stroke="#908bb1"></path><path d="M197.9 141.6L127.6 147.6L182.9 178.9Z" fill="#ffffff" stroke="#908bb1"></path><path d="M847.7 236.1L780.4 209.9L783.4 235.1Z" fill="#ffffff" stroke="#908bb1"></path><path d="M847.7 236.1L816.7 173.9L780.4 209.9Z" fill="#ffffff" stroke="#908bb1"></path><path d="M780.4 123.6L818.7 83.3L763.4 65.3Z" fill="#ffffff" stroke="#908bb1"></path><path d="M626.9 450L728.1 450L663.9 393.7Z" fill="#ffffff" stroke="#908bb1"></path><path d="M816.7 173.9L823.7 128.6L780.4 123.6Z" fill="#ffffff" stroke="#908bb1"></path><path d="M763.4 65.3L786.4 0L707.1 0Z" fill="#ffffff" stroke="#908bb1"></path><path d="M823.7 128.6L818.7 83.3L780.4 123.6Z" fill="#ffffff" stroke="#908bb1"></path><path d="M274.1 0L193.9 0L239.1 44.3Z" fill="#ffffff" stroke="#908bb1"></path><path d="M111.6 76.3L127.6 147.6L197.9 141.6Z" fill="#ffffff" stroke="#908bb1"></path><path d="M852.7 334.4L783.4 235.1L753.4 322.4Z" fill="#ffffff" stroke="#908bb1"></path><path d="M816.7 173.9L900 140.6L823.7 128.6Z" fill="#ffffff" stroke="#908bb1"></path><path d="M823.7 128.6L900 62.3L818.7 83.3Z" fill="#ffffff" stroke="#908bb1"></path><path d="M111.6 76.3L197.9 141.6L195.9 50.3Z" fill="#ffffff" stroke="#908bb1"></path><path d="M182.9 178.9L120.6 195.9L202.9 249.1Z" fill="#ffffff" stroke="#908bb1"></path><path d="M127.6 147.6L120.6 195.9L182.9 178.9Z" fill="#ffffff" stroke="#908bb1"></path><path d="M117.6 375.7L203.9 450L207.9 383.7Z" fill="#ffffff" stroke="#908bb1"></path><path d="M207.9 383.7L203.9 450L255.1 395.7Z" fill="#ffffff" stroke="#908bb1"></path><path d="M728.1 450L769.4 450L773.4 371.7Z" fill="#ffffff" stroke="#908bb1"></path><path d="M773.4 371.7L837.7 362.7L753.4 322.4Z" fill="#ffffff" stroke="#908bb1"></path><path d="M120.6 195.9L114.6 249.1L202.9 249.1Z" fill="#ffffff" stroke="#908bb1"></path><path d="M818.7 83.3L786.4 0L763.4 65.3Z" fill="#ffffff" stroke="#908bb1"></path><path d="M114.6 249.1L118.6 309.4L202.9 249.1Z" fill="#ffffff" stroke="#908bb1"></path><path d="M821.7 450L837.7 362.7L773.4 371.7Z" fill="#ffffff" stroke="#908bb1"></path><path d="M837.7 362.7L852.7 334.4L753.4 322.4Z" fill="#ffffff" stroke="#908bb1"></path><path d="M127.6 147.6L50.3 202.9L120.6 195.9Z" fill="#ffffff" stroke="#908bb1"></path><path d="M46.3 261.1L65.3 309.4L114.6 249.1Z" fill="#ffffff" stroke="#908bb1"></path><path d="M122.6 0L111.6 76.3L195.9 50.3Z" fill="#ffffff" stroke="#908bb1"></path><path d="M65.3 309.4L117.6 375.7L118.6 309.4Z" fill="#ffffff" stroke="#908bb1"></path><path d="M118.6 309.4L117.6 375.7L213.9 336.4Z" fill="#ffffff" stroke="#908bb1"></path><path d="M769.4 450L821.7 450L773.4 371.7Z" fill="#ffffff" stroke="#908bb1"></path><path d="M900 363.7L900 321.4L852.7 334.4Z" fill="#ffffff" stroke="#908bb1"></path><path d="M900 237.1L900 208.9L847.7 236.1Z" fill="#ffffff" stroke="#908bb1"></path><path d="M847.7 236.1L900 208.9L816.7 173.9Z" fill="#ffffff" stroke="#908bb1"></path><path d="M818.7 83.3L848.7 0L786.4 0Z" fill="#ffffff" stroke="#908bb1"></path><path d="M900 237.1L847.7 236.1L900 321.4Z" fill="#ffffff" stroke="#908bb1"></path><path d="M900 321.4L847.7 236.1L852.7 334.4Z" fill="#ffffff" stroke="#908bb1"></path><path d="M193.9 0L122.6 0L195.9 50.3Z" fill="#ffffff" stroke="#908bb1"></path><path d="M900 208.9L900 140.6L816.7 173.9Z" fill="#ffffff" stroke="#908bb1"></path><path d="M900 62.3L848.7 0L818.7 83.3Z" fill="#ffffff" stroke="#908bb1"></path><path d="M900 363.7L852.7 334.4L837.7 362.7Z" fill="#ffffff" stroke="#908bb1"></path><path d="M50.3 202.9L114.6 249.1L120.6 195.9Z" fill="#ffffff" stroke="#908bb1"></path><path d="M114.6 249.1L65.3 309.4L118.6 309.4Z" fill="#ffffff" stroke="#908bb1"></path><path d="M50.3 202.9L127.6 147.6L41.3 136.6Z" fill="#ffffff" stroke="#908bb1"></path><path d="M41.3 136.6L127.6 147.6L111.6 76.3Z" fill="#ffffff" stroke="#908bb1"></path><path d="M117.6 375.7L114.6 450L203.9 450Z" fill="#ffffff" stroke="#908bb1"></path><path d="M68.3 450L114.6 450L117.6 375.7Z" fill="#ffffff" stroke="#908bb1"></path><path d="M900 450L900 363.7L837.7 362.7Z" fill="#ffffff" stroke="#908bb1"></path><path d="M50.3 202.9L46.3 261.1L114.6 249.1Z" fill="#ffffff" stroke="#908bb1"></path><path d="M65.3 309.4L57.3 372.7L117.6 375.7Z" fill="#ffffff" stroke="#908bb1"></path><path d="M900 140.6L900 62.3L823.7 128.6Z" fill="#ffffff" stroke="#908bb1"></path><path d="M49.3 67.3L41.3 136.6L111.6 76.3Z" fill="#ffffff" stroke="#908bb1"></path><path d="M50.3 202.9L0 238.1L46.3 261.1Z" fill="#ffffff" stroke="#908bb1"></path><path d="M0 315.4L57.3 372.7L65.3 309.4Z" fill="#ffffff" stroke="#908bb1"></path><path d="M72.3 0L49.3 67.3L111.6 76.3Z" fill="#ffffff" stroke="#908bb1"></path><path d="M122.6 0L72.3 0L111.6 76.3Z" fill="#ffffff" stroke="#908bb1"></path><path d="M900 62.3L900 0L848.7 0Z" fill="#ffffff" stroke="#908bb1"></path><path d="M821.7 450L900 450L837.7 362.7Z" fill="#ffffff" stroke="#908bb1"></path><path d="M57.3 372.7L68.3 450L117.6 375.7Z" fill="#ffffff" stroke="#908bb1"></path><path d="M0 136.6L41.3 136.6L0 80.3Z" fill="#ffffff" stroke="#908bb1"></path><path d="M0 136.6L0 201.9L41.3 136.6Z" fill="#ffffff" stroke="#908bb1"></path><path d="M41.3 136.6L0 201.9L50.3 202.9Z" fill="#ffffff" stroke="#908bb1"></path><path d="M46.3 261.1L0 315.4L65.3 309.4Z" fill="#ffffff" stroke="#908bb1"></path><path d="M57.3 372.7L0 401.7L68.3 450Z" fill="#ffffff" stroke="#908bb1"></path><path d="M0 201.9L0 238.1L50.3 202.9Z" fill="#ffffff" stroke="#908bb1"></path><path d="M0 80.3L41.3 136.6L49.3 67.3Z" fill="#ffffff" stroke="#908bb1"></path><path d="M0 238.1L0 315.4L46.3 261.1Z" fill="#ffffff" stroke="#908bb1"></path><path d="M0 0L0 80.3L49.3 67.3Z" fill="#ffffff" stroke="#908bb1"></path><path d="M0 315.4L0 401.7L57.3 372.7Z" fill="#ffffff" stroke="#908bb1"></path><path d="M72.3 0L0 0L49.3 67.3Z" fill="#ffffff" stroke="#908bb1"></path><path d="M0 401.7L0 450L68.3 450Z" fill="#ffffff" stroke="#908bb1"></path></g></svg>