<?xml version="1.0" encoding="utf-8"?>
<!-- Generator: Adobe Illustrator 23.0.0, SVG Export Plug-In . SVG Version: 6.00 Build 0)  -->

<svg version="1.1" id="visual" xmlns="http://www.w3.org/2000/svg" xmlns:xlink="http://www.w3.org/1999/xlink" x="0px" y="0px"
	 viewBox="0 0 900 250" style="enable-background:new 0 0 900 350; background-color: white" xml:space="preserve">
<style type="text/css">
	.st0{fill:#FFFFFF;stroke:#908BB1;background:#FFFFFF;stroke-width:2;stroke-linejoin:bevel;}
</style>
<g>
	<path class="st0" d="M452,121.6l-50.3,63.3l66.3,18L452,121.6z"/>
	<path class="st0" d="M493.3,196.9L452,121.6l16,81.3L493.3,196.9z"/>
	<path class="st0" d="M512.3,106.6l-60.3,15l41.3,75.3L512.3,106.6z"/>
	<path class="st0" d="M556.6,114.6l-44.3-8l-19,90.3L556.6,114.6z"/>
	<path class="st0" d="M571.6,190.9l-15-76.3l-63.3,82.3L571.6,190.9z"/>
	<path class="st0" d="M571.6,190.9l73.3-63.3l-88.3-13L571.6,190.9z"/>
	<path class="st0" d="M512.3,106.6L439,82.3l13,39.3L512.3,106.6z"/>
	<path class="st0" d="M452,121.6l-80.3,3l30,60.3L452,121.6z"/>
	<path class="st0" d="M505.3,65.3l-66.3,17l73.3,24.3L505.3,65.3z"/>
	<path class="st0" d="M394.7,84.3l-23,40.3l80.3-3L394.7,84.3z"/>
	<path class="st0" d="M556.6,114.6l-51.3-49.3l7,41.3L556.6,114.6z"/>
	<path class="st0" d="M371.7,124.6l-40.3,55.3l70.3,5L371.7,124.6z"/>
	<path class="st0" d="M439,82.3l-44.3,2l57.3,37.3L439,82.3z"/>
	<path class="st0" d="M371.7,124.6l-29.3,5l-11,50.3L371.7,124.6z"/>
	<path class="st0" d="M403.7,0l-9,84.3l44.3-2L403.7,0z"/>
	<path class="st0" d="M394.7,84.3l-52.3,45.3l29.3-5L394.7,84.3z"/>
	<path class="st0" d="M556.6,114.6l7-71.3l-58.3,22L556.6,114.6z"/>
	<path class="st0" d="M657.9,187.9l-13-60.3l-73.3,63.3L657.9,187.9z"/>
	<path class="st0" d="M629.9,61.3l-66.3-18l-7,71.3L629.9,61.3z"/>
	<path class="st0" d="M505.3,65.3L432,0l7,82.3L505.3,65.3z"/>
	<path class="st0" d="M657.9,187.9l38.2-57.3l-51.2-3L657.9,187.9z"/>
	<path class="st0" d="M688.1,51.3l-58.2,10l15,66.3L688.1,51.3z"/>
	<path class="st0" d="M644.9,127.6l-15-66.3l-73.3,53.3L644.9,127.6z"/>
	<path class="st0" d="M239.1,135.6l34,35.3l69.3-41.3L239.1,135.6z"/>
	<path class="st0" d="M342.4,129.6l-69.3,41.3l58.3,9L342.4,129.6z"/>
	<path class="st0" d="M573.6,0h-49.3l39.3,43.3L573.6,0z"/>
	<path class="st0" d="M563.6,43.3L524.3,0l-19,65.3L563.6,43.3z"/>
	<path class="st0" d="M524.3,0H432l73.3,65.3L524.3,0z"/>
	<path class="st0" d="M394.7,84.3l-67.3-41l15,86.3L394.7,84.3z"/>
	<path class="st0" d="M686.1,192.9l10-62.3l-38.2,57.3L686.1,192.9z"/>
	<path class="st0" d="M780.4,209.9l-84.3-79.3l-10,62.3L780.4,209.9z"/>
	<path class="st0" d="M432,0h-28.3L439,82.3L432,0z"/>
	<path class="st0" d="M403.7,0l-76.3,43.3l67.3,41L403.7,0z"/>
	<path class="st0" d="M629.9,61.3L573.6,0l-10,43.3L629.9,61.3z"/>
	<path class="st0" d="M635.9,0h-62.3l56.3,61.3L635.9,0z"/>
	<path class="st0" d="M327.4,43.3l-88.3,92.3l103.3-6L327.4,43.3z"/>
	<path class="st0" d="M763.4,65.3l-75.3-14l8,79.3L763.4,65.3z"/>
	<path class="st0" d="M696.1,130.6l-8-79.3l-43.2,76.3L696.1,130.6z"/>
	<path class="st0" d="M688.1,51.3L635.9,0l-6,61.3L688.1,51.3z"/>
	<path class="st0" d="M403.7,0H302.4l25,43.3L403.7,0z"/>
	<path class="st0" d="M327.4,43.3l-88.3,1v91.3L327.4,43.3z"/>
	<path class="st0" d="M182.9,178.9"/>
	<path class="st0" d="M195.9,50.3l2,91.3l41.2-6L195.9,50.3z"/>
	<path class="st0" d="M239.1,135.6l-56.2,43.3l90.2-8L239.1,135.6z"/>
	<path class="st0" d="M274.1,0l-35,44.3l88.3-1L274.1,0z"/>
	<path class="st0" d="M302.4,0h-28.3l53.3,43.3L302.4,0z"/>
	<path class="st0" d="M197.9,141.6l-15,37.3l56.2-43.3L197.9,141.6z"/>
	<path class="st0" d="M780.4,209.9v-86.3l-84.3,7L780.4,209.9z"/>
	<path class="st0" d="M688.1,51.3l19-51.3h-71.2L688.1,51.3z"/>
	<path class="st0" d="M816.7,173.9l-36.3-50.3v86.3L816.7,173.9z"/>
	<path class="st0" d="M763.4,65.3L707.1,0l-19,51.3L763.4,65.3z"/>
	<path class="st0" d="M780.4,123.6l-17-58.3l-67.3,65.3L780.4,123.6z"/>
	<path class="st0" d="M193.9,0l2,50.3l43.2-6L193.9,0z"/>
	<path class="st0" d="M239.1,44.3l-43.2,6l43.2,85.3V44.3z"/>
	<path class="st0" d="M197.9,141.6l-70.3,6l55.3,31.3L197.9,141.6z"/>
	<path class="st0" d="M847.7,236.1l-67.3-26.2"/>
	<path class="st0" d="M847.7,236.1l-31-62.2l-36.3,36L847.7,236.1z"/>
	<path class="st0" d="M780.4,123.6l38.3-40.3l-55.3-18L780.4,123.6z"/>
	<path class="st0" d="M816.7,173.9l7-45.3l-43.3-5L816.7,173.9z"/>
	<path class="st0" d="M763.4,65.3l23-65.3h-79.3L763.4,65.3z"/>
	<path class="st0" d="M823.7,128.6l-5-45.3l-38.3,40.3L823.7,128.6z"/>
	<path class="st0" d="M274.1,0h-80.2l45.2,44.3L274.1,0z"/>
	<path class="st0" d="M111.6,76.3l16,71.3l70.3-6L111.6,76.3z"/>
	<path class="st0" d="M816.7,173.9l83.3-33.3l-76.3-12L816.7,173.9z"/>
	<path class="st0" d="M823.7,128.6L900,62.3l-81.3,21L823.7,128.6z"/>
	<path class="st0" d="M111.6,76.3l86.3,65.3l-2-91.3L111.6,76.3z"/>
	<path class="st0" d="M127.6,147.6l-7,48.3l62.3-17L127.6,147.6z"/>
	<path class="st0" d="M818.7,83.3L786.4,0l-23,65.3L818.7,83.3z"/>
	<path class="st0" d="M127.6,147.6l-77.3,55.3l70.3-7L127.6,147.6z"/>
	<path class="st0" d="M122.6,0l-11,76.3l84.3-26L122.6,0z"/>
	<path class="st0" d="M900,237.1v-28.2l-52.3,27.2L900,237.1z"/>
	<path class="st0" d="M847.7,236.1l52.3-27.2l-83.3-35L847.7,236.1z"/>
	<path class="st0" d="M818.7,83.3l30-83.3h-62.3L818.7,83.3z"/>
	<path class="st0" d="M847.7,236.1"/>
	<path class="st0" d="M193.9,0h-71.3l73.3,50.3L193.9,0z"/>
	<path class="st0" d="M900,208.9v-68.3l-83.3,33.3L900,208.9z"/>
	<path class="st0" d="M900,62.3L848.7,0l-30,83.3L900,62.3z"/>
	<path class="st0" d="M50.3,202.9l77.3-55.3l-86.3-11L50.3,202.9z"/>
	<path class="st0" d="M41.3,136.6l86.3,11l-16-71.3L41.3,136.6z"/>
	<path class="st0" d="M900,140.6V62.3l-76.3,66.3L900,140.6z"/>
	<path class="st0" d="M49.3,67.3l-8,69.3l70.3-60.3L49.3,67.3z"/>
	<path class="st0" d="M0,315.4"/>
	<path class="st0" d="M72.3,0l-23,67.3l62.3,9L72.3,0z"/>
	<path class="st0" d="M122.6,0H72.3l39.3,76.3L122.6,0z"/>
	<path class="st0" d="M900,62.3V0h-51.3L900,62.3z"/>
	<path class="st0" d="M0,136.6h41.3L0,80.3V136.6z"/>
	<path class="st0" d="M0,136.6v65.3l41.3-65.3H0z"/>
	<path class="st0" d="M41.3,136.6L0,201.9l50.3,1L41.3,136.6z"/>
	<path class="st0" d="M0,315.4"/>
	<path class="st0" d="M0,401.7"/>
	<path class="st0" d="M0,80.3l41.3,56.3l8-69.3L0,80.3z"/>
	<path class="st0" d="M0,0v80.3l49.3-13L0,0z"/>
	<path class="st0" d="M0,315.4v86.3"/>
	<path class="st0" d="M72.3,0H0l49.3,67.3L72.3,0z"/>
</g>
</svg>

